<svg id="tails" xmlns="http://www.w3.org/2000/svg" viewBox="0 0 196.42 203"><path class="cls-1" d="M297.64 522.44c-54.15 0-98.21-45.53-98.21-101.5s44.06-101.5 98.21-101.5 98.21 45.54 98.21 101.5-44.06 101.5-98.21 101.5Zm0-200c-52.5 0-95.21 44.19-95.21 98.5s42.71 98.5 95.21 98.5 95.21-44.18 95.21-98.5-42.71-98.5-95.21-98.5Z" transform="translate(-199.43 -319.44)"/><path class="cls-1" d="M297.64 507.75c-46.32 0-84-38.94-84-86.81s37.68-86.8 84-86.8 84 38.94 84 86.8-37.64 86.81-84 86.81Zm0-170.61c-44.66 0-81 37.59-81 83.8s36.34 83.81 81 83.81 81-37.6 81-83.81-36.34-83.8-81-83.8Z" transform="translate(-199.43 -319.44)"/><path class="cls-1" d="M316.64 484.52h-33.95a6.35 6.35 0 0 1-6.32-6.22l-.07-4.93a6.34 6.34 0 0 1 3.46-5.73l3.81-1.93-.25-67.38-5.58 1a6.32 6.32 0 0 1-7.42-6.22v-4.57a5 5 0 0 1 2.8-4.52 75.2 75.2 0 0 0 28-24 6.31 6.31 0 0 1 5.15-2.66h5.14a6.32 6.32 0 0 1 6.31 6.31v103.5l1.95 1.05a6.3 6.3 0 0 1 3.32 5.56v4.42a6.32 6.32 0 0 1-6.35 6.32Zm-30.33-89.77.26 71.54a2 2 0 0 1-1.12 1.83l-4.34 2.2a3.34 3.34 0 0 0-1.81 3l.07 4.93a3.33 3.33 0 0 0 3.32 3.26h33.95a3.31 3.31 0 0 0 3.31-3.31v-4.42a3.3 3.3 0 0 0-1.74-2.92l-3.53-1.9V363.68a3.32 3.32 0 0 0-3.31-3.31h-5.14a3.32 3.32 0 0 0-2.7 1.39 78.41 78.41 0 0 1-29.07 24.94 2 2 0 0 0-1.14 1.83v4.57a3.31 3.31 0 0 0 3.89 3.26Z" transform="translate(-199.43 -319.44)"/></svg>