<svg id="coin-unknown"  xmlns="http://www.w3.org/2000/svg" viewBox="0 0 196.42 203"><path class="cls-1" d="M297.73 522.45c-54.15 0-98.21-45.53-98.21-101.5s44.06-101.5 98.21-101.5S395.94 365 395.94 421s-44.06 101.45-98.21 101.45Zm0-200c-52.5 0-95.21 44.19-95.21 98.5s42.71 98.5 95.21 98.5 95.21-44.19 95.21-98.5-42.71-98.5-95.21-98.5Z" transform="translate(-199.52 -319.45)"/><path class="cls-1" d="M297.73 507.75c-46.32 0-84-38.94-84-86.8s37.68-86.81 84-86.81 84 38.95 84 86.81-37.73 86.8-84 86.8Zm0-170.61c-44.66 0-81 37.6-81 83.81s36.34 83.8 81 83.8 81-37.59 81-83.8-36.34-83.81-81-83.81Z" transform="translate(-199.52 -319.45)"/><path class="cls-1" d="M302.1 448.28h-20.36a3.36 3.36 0 0 1-3.37-3.25l-.51-13.9a18.7 18.7 0 0 1 3.24-11.29 30.71 30.71 0 0 1 4.58-5.25 31.3 31.3 0 0 1 4.19-3.19 27.17 27.17 0 0 0 3.33-2.48 28 28 0 0 0 7.55-11.58 9.18 9.18 0 0 0-1.06-7.94 9 9 0 0 0-6.27-3.51 37.37 37.37 0 0 0-26.11 7.11 3.37 3.37 0 0 1-5.31-2.7v-21.1a3.38 3.38 0 0 1 1.08-2.47 33.56 33.56 0 0 1 9.9-6.28 64.52 64.52 0 0 1 13-3 62.93 62.93 0 0 1 21.3 1.55h.15a29.75 29.75 0 0 1 23.36 18.13 37.61 37.61 0 0 1-4.79 35.92c-1.65 2.41-9 6.22-12.4 9.62a53.66 53.66 0 0 0-6.47 7.86 11.79 11.79 0 0 0-2 7.26l.4 6.93a3.35 3.35 0 0 1-3.36 3.56Zm-17.78-3.62h15.3a2.08 2.08 0 0 0 2.08-2.2l-.26-4.46a15.49 15.49 0 0 1 2.63-9.5 57.5 57.5 0 0 1 16.19-15.94 15.63 15.63 0 0 0 5.18-5.42 34 34 0 0 0 2-28.7 26.12 26.12 0 0 0-20.51-15.88h-.19l-.16-.05a55.77 55.77 0 0 0-32.4 1.35 30.93 30.93 0 0 0-6.61 3.8 5.05 5.05 0 0 0-2 4v16.67a.75.75 0 0 0 1.16.63 41.05 41.05 0 0 1 27-6.72 12.48 12.48 0 0 1 8.88 5 12.79 12.79 0 0 1 1.53 11.3 31.76 31.76 0 0 1-8.56 13.06 31.25 31.25 0 0 1-3.72 2.78 28.47 28.47 0 0 0-3.76 2.85 27.17 27.17 0 0 0-4 4.63 15 15 0 0 0-2.6 9.1l.42 11.32a2.43 2.43 0 0 0 2.4 2.38ZM293 484.73a16.44 16.44 0 1 1 16.44-16.44A16.46 16.46 0 0 1 293 484.73Zm0-29.25a12.82 12.82 0 1 0 12.81 12.81A12.82 12.82 0 0 0 293 455.48Z" transform="translate(-199.52 -319.45)"/></svg>