<svg xmlns="http://www.w3.org/2000/svg" xml:space="preserve" id="_x32_" width="800" height="800" version="1.1" viewBox="0 0 512 512"><style>.st0{fill:#000}</style><path d="m510.002 309.835-.068-.326-.076-.334-26.508-112.721-.106-.417-.106-.418C466.47 133.402 409.844 89.953 345.426 89.953H166.579c-64.418 0-121.045 43.449-137.712 105.666l-.114.418-.099.417-26.507 112.72-.076.326-.068.326c-9.749 46.43 16.926 92.496 62.036 107.168l1.586.509a92.307 92.307 0 0 0 28.624 4.544c32.668 0 63.128-17.404 79.758-45.489l22.556-33.343.561-.835.509-.872a4.472 4.472 0 0 1 3.861-2.253h109.02c1.586 0 3.066.865 3.862 2.253l.508.872.562.835 22.555 33.343c16.63 28.085 47.09 45.489 79.766 45.489a92.355 92.355 0 0 0 28.67-4.56l1.533-.493c45.1-14.663 71.767-60.737 62.032-107.159zm-70.684 80.562-1.54.501a64.5 64.5 0 0 1-20.014 3.186c-22.646 0-44.283-11.949-56.088-32.433l-23.064-34.101a32.441 32.441 0 0 0-28.101-16.258h-109.02a32.446 32.446 0 0 0-28.101 16.258l-23.063 34.101c-11.804 20.484-33.434 32.433-56.081 32.433a64.494 64.494 0 0 1-20.013-3.186l-1.548-.501c-31.431-10.219-50.102-42.485-43.311-74.819l26.508-112.722c13.42-50.102 58.826-84.94 110.696-84.94h178.847c51.869 0 97.276 34.838 110.696 84.94l26.508 112.722c6.784 32.334-11.879 64.6-43.311 74.819z" class="st0"/><path d="M157.453 172.061h-33.541v38.518H85.387v33.526h38.525v38.532h33.541v-38.532h38.525v-33.526h-38.525zM365.721 206.247c11.668 0 21.113-9.445 21.113-21.098 0-11.669-9.445-21.114-21.113-21.114-11.653 0-21.098 9.445-21.098 21.114-.001 11.653 9.445 21.098 21.098 21.098zM323.509 206.247c-11.653 0-21.106 9.453-21.106 21.098 0 11.669 9.453 21.122 21.106 21.122 11.661 0 21.106-9.453 21.106-21.122 0-11.645-9.445-21.098-21.106-21.098zM365.721 248.459c-11.653 0-21.098 9.445-21.098 21.114 0 11.653 9.445 21.098 21.098 21.098 11.668 0 21.113-9.445 21.113-21.098 0-11.669-9.446-21.114-21.113-21.114zM407.933 206.247c-11.653 0-21.099 9.453-21.099 21.098 0 11.669 9.446 21.122 21.099 21.122 11.66 0 21.113-9.453 21.113-21.122 0-11.645-9.453-21.098-21.113-21.098z" class="st0"/></svg>