<svg xmlns="http://www.w3.org/2000/svg" width="800" height="800" viewBox="0 0 512 512"><g fill="#231F20"><path d="M21.4 432.5h76.1c5.8 0 10.4-4.7 10.4-10.4V116c0-5.8-4.7-10.4-10.4-10.4H21.4c-5.8 0-10.4 4.7-10.4 10.4v306.1c0 5.8 4.7 10.4 10.4 10.4zm10.5-306.1h55.2v285.2H31.9V126.4zM152.5 432.5h76.1c5.8 0 10.4-4.7 10.4-10.4V209.3c0-5.8-4.7-10.4-10.4-10.4h-76.1c-5.8 0-10.4 4.7-10.4 10.4v212.8c-.1 5.8 4.6 10.4 10.4 10.4zm10.4-212.7h55.2v191.9h-55.2V219.8zM283.5 432.5h76.1c5.8 0 10.4-4.7 10.4-10.4V46.3c0-5.8-4.7-10.4-10.4-10.4h-76.1c-5.8 0-10.4 4.7-10.4 10.4v375.8c0 5.8 4.6 10.4 10.4 10.4zm10.4-375.8h55.2v355h-55.2v-355zM490.6 152.7h-76.1c-5.8 0-10.4 4.7-10.4 10.4v259c0 5.8 4.7 10.4 10.4 10.4h76.1c5.8 0 10.4-4.7 10.4-10.4v-259c0-5.7-4.7-10.4-10.4-10.4zm-10.5 259h-55.2V173.6h55.2v238.1zM490.6 455.3H21.4c-5.8 0-10.4 4.7-10.4 10.4s4.7 10.4 10.4 10.4h469.1c5.8 0 10.4-4.7 10.4-10.4s-4.6-10.4-10.3-10.4z"/></g></svg>